#!OML:ASF H:\Terrain\Walking\May29\JustinRory\Justin.ASF
:FULLY-SPECIFIED
:DEGREES
66
root 13.4156 17.7692 3.50443 189.319 -71.3232 -185.577
lowerback 5.97167 -1.92099 -7.2402
upperback 3.02664 -3.01539 2.85442
thorax 0.332374 -1.67407 7.21991
lowerneck -0.920498 -14.8394 -17.2116
upperneck 14.8506 -22.2481 14.2403
head 8.2833 -10.9916 5.10496
rclavicle -9.47209e-014 3.93594e-014
rhumerus -30.3373 -23.426 -64.014
rradius 57.0727
rwrist -24.2995
rhand -19.9887 21.1029
rfingers 7.12502
rthumb 6.35068 -8.78188
lclavicle -9.47209e-014 3.93594e-014
lhumerus -30.3783 10.0038 81.5166
lradius 34.4789
lwrist -7.40708
lhand 1.58207 40.1265
lfingers 7.12502
lthumb 27.1048 68.2006
rfemur -24.8897 -6.56881 9.0275
rtibia 44.713
rfoot -8.28244 -3.90852
rtoes 8.35434
lfemur -3.20381 -0.00658226 -18.408
ltibia 22.6075
lfoot -18.5538 10.762
ltoes -3.8972
67
root 13.4035 17.7696 3.51763 188.644 -71.1237 -185.092
lowerback 6.27341 -1.96214 -7.06271
upperback 3.0033 -3.0835 2.885
thorax 0.143196 -1.69858 7.16933
lowerneck -1.04913 -14.768 -17.2423
upperneck 15.0379 -22.137 14.121
head 8.33796 -10.9407 5.0768
rclavicle 5.31749e-014 -2.18663e-014
rhumerus -29.5806 -23.6702 -63.4825
rradius 58.083
rwrist -24.4852
rhand -19.8865 20.9758
rfingers 7.12502
rthumb 6.44935 -8.906
lclavicle 5.31749e-014 -2.18663e-014
lhumerus -30.4477 10.9743 80.7868
lradius 34.2525
lwrist -8.94963
lhand 2.82991 39.4774
lfingers 7.12502
lthumb 28.298 67.3597
rfemur -25.2721 -6.75964 9.17344
rtibia 45.4059
rfoot -8.2458 -3.92355
rtoes 2.4886
lfemur -2.94564 0.146917 -18.3413
ltibia 22.6543
lfoot -18.4249 10.9652
ltoes -4.91809
68
root 13.3925 17.7729 3.51505 187.436 -70.8384 -183.759
lowerback 6.42491 -1.88114 -6.79465
upperback 2.7634 -2.96635 3.03405
thorax -0.218839 -1.61255 7.18382
lowerneck -0.825542 -14.7159 -17.3846
upperneck 15.1832 -22.1352 14.1176
head 8.36308 -10.9628 5.11126
rclavicle -6.87795e-014 1.35174e-014
rhumerus -29.2131 -23.9369 -62.638
rradius 59.0352
rwrist -24.7662
rhand -19.32 21.0398
rfingers 7.12502
rthumb 6.99628 -8.8246
lclavicle -6.87795e-014 1.35174e-014
lhumerus -30.6479 11.1868 80.3063
lradius 33.9879
lwrist -9.64842
lhand 3.33197 39.3521
lfingers 7.12502
lthumb 28.7777 67.1539
rfemur -25.8329 -6.58831 9.5588
rtibia 45.8283
rfoot -8.2499 -3.84772
rtoes 2.04885
lfemur -2.83189 0.493908 -17.8898
ltibia 22.467
lfoot -18.4107 10.8787
ltoes -4.57196
69
root 13.3743 17.7761 3.51099 187.017 -70.8732 -183.398
lowerback 6.50815 -1.92005 -6.82679
upperback 2.6956 -3.02533 3.17211
thorax -0.315531 -1.63768 7.35874
lowerneck -0.601198 -14.6433 -17.6068
upperneck 15.0712 -22.0737 14.2592
head 8.31981 -10.9514 5.2163
rclavicle -6.95746e-016 -1.03368e-014
rhumerus -28.5102 -24.0598 -61.9092
rradius 59.7606
rwrist -24.9314
rhand -17.7427 22.0591
rfingers 7.12502
rthumb 8.51865 -7.7491
lclavicle -6.95746e-016 -1.03368e-014
lhumerus -30.7583 10.8893 80.1902
lradius 33.9687
lwrist -9.2428
lhand 3.17448 39.573
lfingers 7.12502
lthumb 28.6273 67.4003
rfemur -25.8153 -6.24997 9.28119
rtibia 45.9906
rfoot -9.11971 -3.28408
rtoes 12.8785
lfemur -2.51751 0.668521 -17.726
ltibia 22.1578
lfoot -18.3263 10.6851
ltoes -3.66897
70
root 13.3518 17.7892 3.51042 186.801 -71.0407 -183.337
lowerback 6.54549 -2.08646 -6.97198
upperback 2.77609 -3.26363 3.39569
thorax -0.18661 -1.77296 7.69236
lowerneck -0.646152 -14.5533 -18.0593
upperneck 15.0393 -21.9142 14.3207
head 8.35072 -10.8898 5.31839
rclavicle 4.1546e-014 2.3059e-014
rhumerus -27.3183 -23.8588 -61.3391
rradius 60.3633
rwrist -25.3675
rhand -19.3931 23.1202
rfingers 7.12502
rthumb 6.9257 -6.7465
lclavicle 4.1546e-014 2.3059e-014
lhumerus -30.6992 11.4456 80.0276
lradius 33.8304
lwrist -9.28142
lhand 3.43949 39.3469
lfingers 7.12502
lthumb 28.8804 67.1312
rfemur -25.6337 -5.96316 8.86772
rtibia 45.9199
rfoot -9.93235 -2.66585
rtoes 20.4785
lfemur -2.11956 0.492993 -17.7127
ltibia 21.8331
lfoot -18.1394 10.8093
ltoes -3.09924
71
root 13.3347 17.8033 3.50984 186.919 -70.8452 -183.469
lowerback 6.40112 -2.0975 -7.32006
upperback 2.85573 -3.29387 3.61468
thorax 0.0189901 -1.80929 8.11944
lowerneck -0.657222 -14.5139 -18.2374
upperneck 14.824 -21.7567 14.1572
head 8.25486 -10.8276 5.3169
rclavicle -4.96962e-014 3.18055e-014
rhumerus -25.9543 -23.8138 -60.7619
rradius 60.8501
rwrist -25.8194
rhand -19.607 22.4152
rfingers 7.12502
rthumb 6.71921 -7.45815
lclavicle -4.96962e-014 3.18055e-014
lhumerus -30.3955 12.0999 79.9286
lradius 33.5117
lwrist -9.60541
lhand 3.49157 39.1418
lfingers 7.12502
lthumb 28.9302 66.9175
rfemur -25.8437 -5.63076 8.54865
rtibia 45.6239
rfoot -10.1205 -2.39384
rtoes 20.9932
lfemur -1.8551 0.380533 -17.8471
ltibia 21.4825
lfoot -17.9662 11.111
ltoes -2.9913
72
root 13.3147 17.8019 3.51416 187.097 -70.6546 -183.665
lowerback 6.32904 -2.06951 -7.32829
upperback 2.84831 -3.25147 3.59778
thorax 0.0425454 -1.78818 8.10049
lowerneck -0.571427 -14.4927 -18.0835
upperneck 14.6455 -21.6624 13.9267
head 8.11869 -10.7913 5.2483
rclavicle 4.79071e-014 -8.74653e-015
rhumerus -24.8601 -24.1927 -60.2765
rradius 61.3453
rwrist -26.2933
rhand -19.3975 22.3312
rfingers 7.12502
rthumb 6.92143 -7.53564
lclavicle 4.79071e-014 -8.74653e-015
lhumerus -30.1664 12.295 79.6379
lradius 33.1592
lwrist -9.88718
lhand 3.38611 38.9335
lfingers 7.12502
lthumb 28.8294 66.7264
rfemur -25.9581 -5.56248 8.34573
rtibia 45.0496
rfoot -10.2374 -2.314
rtoes 18.1686
lfemur -1.61695 0.36401 -18.0089
ltibia 21.25
lfoot -17.8557 11.3035
ltoes -3.14865
73
root 13.2988 17.8003 3.50932 186.8 -70.4945 -183.326
lowerback 6.3486 -2.07088 -7.16113
upperback 2.78651 -3.24412 3.61653
thorax -0.043771 -1.77603 8.02667
lowerneck -0.74112 -14.4865 -18.1843
upperneck 14.8553 -21.6229 13.7761
head 8.20461 -10.7759 5.20248
rclavicle 3.47873e-014 4.77083e-015
rhumerus -23.5801 -24.4819 -59.8407
rradius 61.7232
rwrist -26.7884
rhand -18.8512 22.0555
rfingers 7.12502
rthumb 7.44877 -7.7934
lclavicle 3.47873e-014 4.77083e-015
lhumerus -30.1816 12.4697 79.2492
lradius 32.9737
lwrist -9.78026
lhand 2.66597 39.0217
lfingers 7.12502
lthumb 28.1413 66.9299
rfemur -25.9685 -5.20259 8.36118
rtibia 44.1796
rfoot -10.5872 -2.67056
rtoes 16.685
lfemur -1.53127 0.485099 -17.9
ltibia 21.2412
lfoot -17.9063 11.3461
ltoes -3.20813
74
root 13.2914 17.8065 3.49658 185.511 -70.3021 -181.663
lowerback 6.12748 -2.10412 -6.77138
upperback 2.71863 -3.25542 3.87187
thorax 0.00242386 -1.78132 8.06625
lowerneck -1.08677 -14.4836 -18.4231
upperneck 15.1336 -21.5653 13.6717
head 8.36306 -10.7457 5.17696
rclavicle -3.99557e-014 3.33958e-014
rhumerus -21.9422 -24.4425 -59.4457
rradius 61.8315
rwrist -26.9946
rhand -18.8879 21.8154
rfingers 7.12502
rthumb 7.41337 -8.03472
lclavicle -3.99557e-014 3.33958e-014
lhumerus -30.2078 12.9851 78.883
lradius 32.921
lwrist -9.71337
lhand 2.01644 39.3365
lfingers 7.12502
lthumb 27.5203 67.3452
rfemur -26.3716 -4.83245 9.09575
rtibia 43.0291
rfoot -10.6336 -3.95971
rtoes 10.8891
lfemur -1.81485 0.615619 -17.2639
ltibia 21.2906
lfoot -17.9165 11.3924
ltoes -2.80969
75
root 13.2643 17.8098 3.4941 183.907 -70.5587 -179.761
lowerback 5.86602 -2.31433 -5.74148
upperback 2.67777 -3.46898 3.92033
thorax 0.0811828 -1.8805 7.51785
lowerneck -1.17348 -14.4387 -18.4594
upperneck 15.2533 -21.5308 13.7723
head 8.42852 -10.7233 5.21206
rclavicle 5.54609e-014 4.77083e-015
rhumerus -21.0627 -24.1148 -59.1318
rradius 62.5026
rwrist -27.4381
rhand -20.2825 21.8086
rfingers 7.12502
rthumb 6.06713 -8.08457
lclavicle 5.54609e-014 4.77083e-015
lhumerus -30.0674 13.4195 78.3168
lradius 32.7049
lwrist -9.86069
lhand 2.50305 39.2574
lfingers 7.12502
lthumb 27.9856 67.1911
rfemur -26.3334 -5.04989 9.77124
rtibia 41.6607
rfoot -10.7974 -4.69005
rtoes 6.02194
lfemur -1.92927 0.390709 -16.578
ltibia 21.2214
lfoot -17.9509 11.3666
ltoes -3.14189
76
root 13.2259 17.8074 3.49151 183.778 -70.8753 -179.765
lowerback 5.92425 -2.48615 -5.37455
upperback 2.64527 -3.67985 3.81782
thorax 0.0187799 -1.97712 7.20987
lowerneck -0.936515 -14.3814 -18.4917
upperneck 15.0923 -21.5024 13.9319
head 8.35113 -10.718 5.29464
rclavicle -7.46436e-014 3.33958e-014
rhumerus -20.6878 -23.5437 -58.5659
rradius 63.6633
rwrist -28.2483
rhand -22.047 21.0815
rfingers 7.12502
rthumb 4.3634 -8.85358
lclavicle -7.46436e-014 3.33958e-014
lhumerus -29.9034 14.0457 77.8666
lradius 32.379
lwrist -10.002
lhand 2.6183 39.2014
lfingers 7.12502
lthumb 28.0958 67.1171
rfemur -25.6226 -4.99469 9.35578
rtibia 40.1683
rfoot -11.5511 -4.42031
rtoes 8.7194
lfemur -1.60053 0.115248 -16.622
ltibia 21.0863
lfoot -18.1593 11.3408
ltoes -3.23027
77
root 13.1973 17.8062 3.48342 184.737 -70.8547 -180.903
lowerback 6.134 -2.45671 -5.8366
upperback 2.57924 -3.6719 3.80005
thorax -0.137519 -1.96836 7.47137
lowerneck -0.738986 -14.3961 -18.4987
upperneck 14.8272 -21.5265 13.9994
head 8.24149 -10.7361 5.33229
rclavicle 5.1684e-015 -1.27222e-014
rhumerus -19.8698 -23.4515 -57.8697
rradius 64.0452
rwrist -28.6365
rhand -22.7397 20.6867
rfingers 7.12502
rthumb 3.69446 -9.26103
lclavicle 5.1684e-015 -1.27222e-014
lhumerus -29.8528 14.791 77.6892
lradius 32.2619
lwrist -10.1103
lhand 1.43069 39.6691
lfingers 7.12502
lthumb 26.96 67.7657
rfemur -25.1198 -4.5892 8.60647
rtibia 38.6244
rfoot -12.166 -4.62985
rtoes 9.59941
lfemur -1.23632 0.10316 -17.0598
ltibia 20.8612
lfoot -18.311 11.5102
ltoes -2.46443
78
root 13.1728 17.8125 3.47961 185.223 -70.6691 -181.229
lowerback 5.90923 -2.4447 -5.75439
upperback 2.61108 -3.63823 3.66068
thorax -0.000444819 -1.95376 7.25926
lowerneck -0.913541 -14.4123 -18.3399
upperneck 14.738 -21.5509 14.1992
head 8.2523 -10.7202 5.35938
rclavicle 1.16388e-013 -4.05521e-014
rhumerus -18.5271 -23.766 -57.6676
rradius 63.7364
rwrist -28.8173
rhand -22.063 21.396
rfingers 7.12502
rthumb 4.34795 -8.53934
lclavicle 1.16388e-013 -4.05521e-014
lhumerus -29.5557 15.3479 77.2372
lradius 32.1633
lwrist -10.3186
lhand 0.97585 40.0276
lfingers 7.12502
lthumb 26.5247 68.1907
rfemur -25.1265 -4.32965 8.34296
rtibia 37.055
rfoot -12.2929 -5.48608
rtoes 7.0094
lfemur -1.17212 0.112425 -17.2466
ltibia 20.5838
lfoot -18.2568 11.8397
ltoes -2.80824
